<?xml version="1.0" encoding="UTF-8"?>
<!-- Generator: Adobe Illustrator 16.0.0, SVG Export Plug-In . SVG Version: 6.00 Build 0)  -->
<!DOCTYPE svg PUBLIC "-//W3C//DTD SVG 1.1//EN" "http://www.w3.org/Graphics/SVG/1.1/DTD/svg11.dtd">
<svg version="1.1" id="Calque_1" xmlns="http://www.w3.org/2000/svg" xmlns:xlink="http://www.w3.org/1999/xlink" x="0px" y="0px" width="235px" height="50px" viewBox="0 0 235 50" enable-background="new 0 0 235 50" xml:space="preserve">
<g>
</g>
<g>
	<rect x="15.687" y="1.964" fill="none" width="232.53" height="46.386"/>
	<path fill="#FFFFFF" d="M32.001,28.938c1.256,0,2.34,0.455,3.25,1.365s1.365,1.994,1.365,3.25c0,1.258-0.455,2.33-1.365,3.218   c-0.91,0.889-1.994,1.332-3.25,1.332c-0.78,0-1.495-0.172-2.145-0.52c-0.65-0.347-1.192-0.823-1.625-1.43l-2.275,8.515   c-0.217,0.997-0.726,1.799-1.527,2.405c-0.803,0.606-1.701,0.909-2.698,0.909c-0.217,0-0.401,0-0.552,0   c-0.152,0-0.336-0.043-0.553-0.13c-1.17-0.304-2.07-0.964-2.697-1.982c-0.629-1.018-0.792-2.134-0.488-3.348l10.14-40.495h8.97   l-6.695,27.495C30.506,29.134,31.222,28.938,32.001,28.938z M37.461,1.964h1.495v45.5h-1.495V1.964z M39.867,1.964h1.495v45.5   h-1.495V1.964z M42.271,1.964h1.495v45.5h-1.495V1.964z M46.171,1.964v45.5h-1.495v-45.5H46.171z"/>
	<path fill="#FFFFFF" d="M56.831,1.964c1.213,0,2.243,0.422,3.088,1.268c0.845,0.845,1.268,1.875,1.268,3.087v19.89   c0,1.214-0.423,2.242-1.268,3.087c-0.845,0.846-1.875,1.268-3.088,1.268c-1.213,0-2.242-0.422-3.087-1.268   c-0.845-0.845-1.268-1.873-1.268-3.087V6.319c0-1.212,0.423-2.243,1.268-3.087C54.589,2.386,55.618,1.964,56.831,1.964z    M52.476,31.279h1.495v16.185h-1.495V31.279z M54.881,31.279h1.495v16.185h-1.495V31.279z M57.286,31.279h1.495v16.185h-1.495   V31.279z M59.691,31.279h1.495v16.185h-1.495V31.279z M77.241,17.109h-7.67l7.41,2.015l-0.455,1.69l-7.41-2.015l6.63,3.835   l-0.91,1.56l-6.63-3.835l5.46,5.395l-1.235,1.235l-5.46-5.396l3.835,6.63l-1.495,0.846l-3.835-6.63l1.95,7.41l-1.69,0.455   l-1.95-7.41v7.669h-1.755v-8.709h1.625l1.365-0.39l1.3-0.715l1.04-1.04l0.715-1.3l0.39-1.43v-1.43l-0.39-1.43l-0.715-1.3   l-1.04-1.04l-1.3-0.715l-1.365-0.39h-1.625v-8.71h1.755v7.67l1.95-7.41l1.69,0.455l-1.95,7.41l3.835-6.63l1.495,0.845l-3.835,6.63   l5.46-5.395l1.235,1.235l-5.46,5.395l6.63-3.835l0.91,1.56l-6.63,3.835l7.41-2.015l0.455,1.69l-7.41,2.015h7.67V17.109z"/>
	<path fill="#FFFFFF" d="M111.756,34.724h-7.67l7.41,2.016l-0.455,1.689l-7.41-2.015l6.695,3.835l-0.91,1.56l-6.63-3.835   l5.395,5.396l-1.235,1.234l-5.395-5.395l3.835,6.63l-1.495,0.845l-3.835-6.63l1.95,7.41l-1.69,0.455l-1.95-7.41v7.67h-1.755v-7.67   l-2.015,7.41l-1.69-0.455l2.015-7.41l-3.835,6.63l-1.495-0.845l3.835-6.63l-5.46,5.395l-1.235-1.234l5.46-5.46l-6.695,3.899   l-0.845-1.56l6.63-3.835l-7.41,2.015l-0.455-1.689l7.41-2.016h-7.67v-1.755h8.775v1.625l0.325,1.43l0.78,1.235l1.04,1.04   l1.235,0.78l1.43,0.325h1.495l1.365-0.325l1.3-0.78l1.04-1.04l0.715-1.235l0.39-1.43v-1.235c0-0.433-0.043-0.845-0.13-1.234   c-0.087-0.347-0.185-0.692-0.292-1.04c-0.109-0.347-0.271-0.65-0.487-0.91c-0.52-0.563-1.235-0.92-2.145-1.072   c-0.91-0.151-1.755-0.228-2.535-0.228c-1.474,0-2.795-0.13-3.965-0.391c-1.17-0.26-2.21-0.595-3.12-1.007   c-0.91-0.411-1.69-0.878-2.34-1.397c-0.65-0.521-1.192-1.018-1.625-1.495c-1.127-1.256-1.929-2.675-2.405-4.258   c-0.477-1.581-0.759-2.87-0.845-3.867v-2.21l7.67,0.52l-7.41-2.015l0.455-1.69l7.41,2.015l-6.63-3.835l0.845-1.56l6.63,3.835   l-5.395-5.395l1.235-1.235l5.395,5.395l-3.77-6.63l1.495-0.845l3.835,6.63l-2.015-7.41l1.69-0.455l2.015,7.41v-7.67h1.755v7.67   l1.95-7.41l1.69,0.455l-1.95,7.41l3.835-6.63l1.495,0.845l-3.835,6.63l5.395-5.395l1.235,1.235l-5.395,5.395l6.63-3.835l0.91,1.56   l-6.695,3.835l7.41-2.015l0.455,1.69l-7.41,2.015h7.67v1.69h-8.71v-1.56l-0.39-1.43l-0.715-1.3l-1.04-1.04l-1.3-0.715l-1.365-0.39   h-1.495l-1.43,0.39l-1.235,0.715l-1.04,1.04l-0.78,1.3l-0.325,1.43v0.065v0.065c0,0.434,0.042,0.889,0.13,1.365   c0.086,0.39,0.184,0.791,0.292,1.202c0.108,0.413,0.314,0.77,0.618,1.073c0.52,0.563,1.212,0.932,2.08,1.105   c0.866,0.174,1.667,0.26,2.405,0.26c4.94,0,8.688,1.43,11.245,4.29c0.866,0.954,1.516,1.972,1.95,3.055   c0.433,1.084,0.736,2.091,0.91,3.022c0.173,0.933,0.249,1.745,0.228,2.438c-0.022,0.693-0.033,1.127-0.033,1.3V34.724z"/>
	<path fill="#FFFFFF" d="M144.695,28.549c0,1.214-0.422,2.242-1.268,3.088c-0.845,0.845-1.874,1.268-3.087,1.268   c-1.214,0-2.242-0.423-3.085-1.268c-0.843-0.846-1.263-1.874-1.263-3.088v-13.65l-0.388-1.43l-0.774-1.3l-1.033-1.04l-1.226-0.715   l-1.419-0.39h-1.42l-1.42,0.39l-1.29,0.715l-1.033,1.04l-0.72,1.3l-0.393,1.43v1.56h-4.189c1.134,0.087,2.116,0.542,2.945,1.365   c0.829,0.824,1.244,1.82,1.244,2.99v13.715l0.393,1.43l0.72,1.3l1.033,1.04l1.29,0.715l1.42,0.391h1.42l1.419-0.391l1.291-0.715   l0.968-1.04l0.774-1.3l0.388-1.43v-1.625h8.702v1.755h-7.67l7.36,2.015l-0.452,1.69l-7.36-2.016l6.631,3.835l-0.846,1.561   l-6.624-3.835l5.396,5.395l-1.235,1.235l-5.389-5.396l3.835,6.63l-1.56,0.846l-3.874-6.63l2.054,7.409l-1.706,0.455l-2.034-7.409   v7.67h-1.75v-7.67l-1.899,7.409l-1.646-0.455l1.95-7.409l-3.835,6.63l-1.495-0.846l3.835-6.63l-5.401,5.396l-1.235-1.235   l5.396-5.395l-6.678,3.835l-0.851-1.561l6.678-3.835l-7.463,2.016l-0.455-1.69l7.459-2.015h-7.695V20.814   c0-1.17,0.4-2.167,1.203-2.99c0.801-0.823,1.787-1.277,2.957-1.365h-4.16v-1.755h7.695l-7.459-1.95l0.458-1.69l7.46,1.95   l-6.63-3.835l0.845-1.495l6.636,3.835l-5.396-5.395l1.235-1.235l5.401,5.395l-3.835-6.63l1.495-0.91l3.743,6.695l-1.858-7.41   l1.646-0.455l1.899,7.41v-7.67h1.75v7.67l2.034-7.41l1.706,0.455l-2.054,7.41l3.874-6.695l1.56,0.91l-3.835,6.63l5.389-5.395   l1.235,1.235l-5.396,5.395l6.583-3.835l0.839,1.495l-6.583,3.835l7.357-1.95l0.455,1.69l-7.36,1.95h7.67V28.549z"/>
	<path fill="#FFFFFF" d="M175.098,39.924c0.846,0.867,1.268,1.907,1.268,3.12c0,1.214-0.422,2.254-1.268,3.12   c-0.845,0.867-1.874,1.3-3.087,1.3H149.91v-45.5h1.495v34.06h0.91V1.964h1.495v34.06h0.91V1.964h1.495v34.06h0.91V1.964h1.494   v36.66h13.391C173.224,38.624,174.253,39.058,175.098,39.924z"/>
	<path fill="#FFFFFF" d="M210.215,34.659h-7.67l7.36,2.015l-0.455,1.69l-7.357-2.016l6.583,3.835l-0.839,1.561l-6.583-3.835   l5.396,5.395l-1.235,1.235l-5.454-5.396l3.835,6.63l-1.494,0.846l-3.874-6.63l2.054,7.409l-1.706,0.455l-2.033-7.409v7.67h-1.751   v-7.67l-1.899,7.409l-1.646-0.455l1.95-7.409l-3.835,6.63l-1.495-0.846l3.835-6.63l-5.401,5.396l-1.234-1.235l5.395-5.46   l-6.678,3.9l-0.916-1.561l6.743-3.835l-7.463,2.016l-0.455-1.69l7.46-2.015h-7.671V1.964h1.495v30.94h0.91V1.964h1.495v30.94h0.91   V1.964h1.495v30.94h0.91V1.964h1.502v32.565l0.393,1.43l0.721,1.235l1.032,1.039l1.29,0.78l1.354,0.325h1.485l1.419-0.325   l1.226-0.78l1.033-1.039l0.774-1.235l0.323-1.43V5.734c0.043-1.213,0.484-2.243,1.327-3.087c0.843-0.845,1.871-1.268,3.085-1.268   c1.213,0,2.242,0.422,3.087,1.268c0.846,0.845,1.268,1.875,1.268,3.087V34.659z"/>
</g>
<g>
</g>
<g>
</g>
<g>
</g>
<g>
</g>
<g>
</g>
<g>
</g>
</svg>